<svg width="74" height="36" viewBox="0 0 74 36" fill="none" xmlns="http://www.w3.org/2000/svg">
<path d="M8.6657 24.1317H2.68363L0 35.8024H3.05202L4.06205 31.4112H5.63807L8.35586 35.8024H11.6982L8.65106 31.1551C11.3542 30.4525 12.274 29.0034 12.4447 27.4543C12.6155 25.9052 11.7519 24.1293 8.66326 24.1293L8.6657 24.1317ZM9.39759 27.6227C9.27073 28.7644 8.19972 29.4377 6.71396 29.4377H4.51826L5.33311 25.9174H7.64835C8.87551 25.9174 9.5147 26.5176 9.39516 27.6227H9.39759ZM17.2045 24.1342H20.2761L19.5612 27.2323L17.5851 35.7975H14.4794L17.2045 24.1342ZM43.1772 23.4877L43.1992 35.7951H40.2716L40.3033 27.0128L34.0846 35.7951H31.2472L28.6734 26.964L24.5528 35.7951H21.1495L27.2364 22.9851C27.678 22.1581 28.105 21.7898 28.9442 21.7849C29.5004 21.7849 30.1055 22.1045 30.3812 23.0754L33.038 32.6847L39.9495 22.8632C40.5375 22.0313 41.0328 21.7776 41.7159 21.7947C42.4478 21.8142 43.1797 22.2948 43.1797 23.4877H43.1772ZM63.8875 30.233C63.6802 32.1089 65.1074 33.5873 67.6056 33.6239C68.8333 33.6581 70.0584 33.4933 71.2334 33.136L70.6405 35.6999C69.6297 35.8874 68.6044 35.9854 67.5763 35.9927C62.6628 35.9927 60.3793 33.5531 60.7453 30.1744C61.16 26.359 64.5267 23.7926 69.8306 23.7926C70.9569 23.8094 72.0785 23.9419 73.1778 24.1878L72.6411 26.5371C71.6027 26.2871 70.5375 26.1658 69.4695 26.176C66.376 26.1516 64.1657 27.6959 63.89 30.233H63.8875ZM51.2184 31.4356L54.0752 27.4031L54.9681 31.4356H51.2184ZM56.0123 35.7975H58.9789L56.1392 25.6369C55.7683 24.4049 55.0389 24.0805 54.2801 24.1464C53.8044 24.1878 53.3043 24.3903 52.8017 25.11L45.4339 35.7999H48.4567L49.9546 33.4092H55.4463L56.0172 35.8073L56.0123 35.7975ZM61.2308 9.69464C60.6086 9.90687 33.1551 17.5011 32.7525 17.5962C32.4798 17.6812 32.1895 17.6925 31.911 17.6291C31.6325 17.5657 31.3758 17.4298 31.1667 17.2352C30.4348 16.5692 30.7349 15.6446 30.9423 15.1762C31.1863 14.6249 36.473 3.50313 36.473 3.50313L15.3675 12.3513C14.4867 12.6587 14.1867 11.9341 14.1867 11.9341C14.1867 11.9341 13.8183 11.1315 14.7795 10.6778L37.9563 0.26833C38.3369 0.0975639 39.0517 -0.23909 39.608 0.26833C40.1642 0.77575 39.9471 1.54176 39.7763 2.01503C39.6934 2.23946 35.8973 12.7831 35.8973 12.7831C35.8973 12.7831 58.491 3.08842 59.2229 2.81275C60.655 2.26874 61.9578 2.59075 62.8824 3.66902C63.2948 4.16244 63.5822 4.74799 63.7202 5.37606C63.8583 6.00413 63.8428 6.65622 63.6753 7.27707C63.3557 8.36754 62.6506 9.20185 61.2356 9.68488L61.2308 9.69464Z" fill="#F7052D"/>
</svg>
