<svg width="86" height="42" viewBox="0 0 86 42" fill="none" xmlns="http://www.w3.org/2000/svg">
<path d="M10.11 28.1537H3.13091L0 41.7695H3.56069L4.73905 36.6465H6.57775L9.7485 41.7695H13.6479L10.0929 36.3476C13.2466 35.528 14.3196 33.8374 14.5189 32.0301C14.7181 30.2228 13.7105 28.1508 10.1071 28.1508L10.11 28.1537ZM10.9639 32.2265C10.8159 33.5584 9.56634 34.344 7.83296 34.344H5.27131L6.22196 30.237H8.92308C10.3548 30.237 11.1005 30.9372 10.961 32.2265H10.9639ZM20.072 28.1565H23.6554L22.8215 31.7711L20.516 41.7638H16.8927L20.072 28.1565ZM50.3734 27.4023L50.399 41.7609H46.9835L47.0205 31.5149L39.7654 41.7609H36.4551L33.4523 31.458L28.6449 41.7609H24.6744L31.7758 26.816C32.291 25.8512 32.7891 25.4214 33.7682 25.4157C34.4172 25.4157 35.1231 25.7886 35.4447 26.9213L38.5443 38.1321L46.6078 26.6737C47.2938 25.7032 47.8716 25.4072 48.6685 25.4271C49.5224 25.4499 50.3763 26.0106 50.3763 27.4023H50.3734ZM74.5355 35.2718C74.2935 37.4605 75.9586 39.1852 78.8732 39.2279C80.3055 39.2678 81.7348 39.0756 83.1056 38.6587L82.414 41.6499C81.2347 41.8687 80.0384 41.983 78.8391 41.9915C73.1066 41.9915 70.4425 39.1454 70.8695 35.2035C71.3533 30.7522 75.2812 27.7581 81.469 27.7581C82.7831 27.7777 84.0916 27.9322 85.3741 28.2192L84.7479 30.96C83.5365 30.6683 82.2938 30.5268 81.0478 30.5387C77.4387 30.5103 74.86 32.3119 74.5383 35.2718H74.5355ZM59.7548 36.6749L63.0877 31.9703L64.1295 36.6749H59.7548ZM65.3477 41.7638H68.8088L65.4957 29.9097C65.0631 28.4725 64.212 28.0939 63.3268 28.1708C62.7718 28.2192 62.1883 28.4554 61.602 29.295L53.0062 41.7666H56.5328L58.2804 38.9774H64.6874L65.3534 41.7752L65.3477 41.7638ZM71.4359 11.3104C70.7101 11.558 38.6809 20.418 38.2113 20.529C37.8931 20.6281 37.5545 20.6413 37.2295 20.5673C36.9046 20.4934 36.6051 20.3348 36.3612 20.1077C35.5073 19.3308 35.8574 18.2521 36.0993 17.7056C36.384 17.0624 42.5519 4.08701 42.5519 4.08701L17.9287 14.4098C16.9012 14.7684 16.5511 13.9232 16.5511 13.9232C16.5511 13.9232 16.1213 12.9868 17.2428 12.4574L44.2824 0.313072C44.7264 0.113845 45.5604 -0.278918 46.2093 0.313072C46.8583 0.905063 46.605 1.79874 46.4057 2.35088C46.3089 2.61273 41.8801 14.9136 41.8801 14.9136C41.8801 14.9136 68.2395 3.60317 69.0934 3.28156C70.7642 2.64688 72.2841 3.02257 73.3628 4.28054C73.844 4.8562 74.1793 5.53934 74.3403 6.27209C74.5013 7.00484 74.4833 7.76561 74.2879 8.48994C73.915 9.76215 73.0924 10.7355 71.4416 11.299L71.4359 11.3104Z" fill="white"/>
</svg>
